<mxfile host="app.diagrams.net" agent="Mozilla/5.0 (Windows NT 10.0; Win64; x64) AppleWebKit/537.36 (KHTML, like Gecko) Chrome/135.0.0.0 Safari/537.36" version="26.2.12">
  <diagram name="Page-1" id="M1iB0JgTUpQXoafaGhzw">
    <mxGraphModel dx="1283" dy="543" grid="1" gridSize="10" guides="1" tooltips="1" connect="1" arrows="1" fold="1" page="1" pageScale="1" pageWidth="850" pageHeight="1100" math="0" shadow="0">
      <root>
        <mxCell id="0" />
        <mxCell id="1" parent="0" />
        <mxCell id="ocfpeheD2iWH20HzGndA-3" style="edgeStyle=orthogonalEdgeStyle;rounded=0;orthogonalLoop=1;jettySize=auto;html=1;entryX=0.5;entryY=0;entryDx=0;entryDy=0;" edge="1" parent="1" source="ocfpeheD2iWH20HzGndA-1" target="ocfpeheD2iWH20HzGndA-2">
          <mxGeometry relative="1" as="geometry" />
        </mxCell>
        <mxCell id="ocfpeheD2iWH20HzGndA-1" value="用户输入" style="rounded=0;whiteSpace=wrap;html=1;" vertex="1" parent="1">
          <mxGeometry x="300" y="20" width="120" height="60" as="geometry" />
        </mxCell>
        <mxCell id="ocfpeheD2iWH20HzGndA-5" style="edgeStyle=orthogonalEdgeStyle;rounded=0;orthogonalLoop=1;jettySize=auto;html=1;" edge="1" parent="1" source="ocfpeheD2iWH20HzGndA-2" target="ocfpeheD2iWH20HzGndA-4">
          <mxGeometry relative="1" as="geometry" />
        </mxCell>
        <mxCell id="ocfpeheD2iWH20HzGndA-9" style="edgeStyle=orthogonalEdgeStyle;rounded=0;orthogonalLoop=1;jettySize=auto;html=1;" edge="1" parent="1" source="ocfpeheD2iWH20HzGndA-2" target="ocfpeheD2iWH20HzGndA-8">
          <mxGeometry relative="1" as="geometry">
            <Array as="points">
              <mxPoint x="360" y="220" />
              <mxPoint x="545" y="220" />
            </Array>
          </mxGeometry>
        </mxCell>
        <mxCell id="ocfpeheD2iWH20HzGndA-2" value="问题判断" style="rounded=0;whiteSpace=wrap;html=1;" vertex="1" parent="1">
          <mxGeometry x="300" y="120" width="120" height="60" as="geometry" />
        </mxCell>
        <mxCell id="ocfpeheD2iWH20HzGndA-4" value="咨询类&lt;br&gt;（问题：常见问题&lt;div&gt;&lt;span style=&quot;background-color: transparent; color: light-dark(rgb(0, 0, 0), rgb(255, 255, 255));&quot;&gt;目的：回复速度&lt;br&gt;功能：智能回复）&lt;/span&gt;&lt;/div&gt;" style="rounded=0;whiteSpace=wrap;html=1;" vertex="1" parent="1">
          <mxGeometry x="180" y="260" width="125" height="90" as="geometry" />
        </mxCell>
        <mxCell id="ocfpeheD2iWH20HzGndA-6" value="技术类&lt;div&gt;(问题：技术人员才能回答的问题&lt;/div&gt;&lt;div&gt;目的：减少客服那边询问万齐，双方对接的时间&lt;br&gt;&lt;/div&gt;" style="rounded=0;whiteSpace=wrap;html=1;" vertex="1" parent="1">
          <mxGeometry x="335" y="260" width="120" height="90" as="geometry" />
        </mxCell>
        <mxCell id="ocfpeheD2iWH20HzGndA-7" style="edgeStyle=orthogonalEdgeStyle;rounded=0;orthogonalLoop=1;jettySize=auto;html=1;entryX=0.442;entryY=0.027;entryDx=0;entryDy=0;entryPerimeter=0;" edge="1" parent="1" source="ocfpeheD2iWH20HzGndA-2" target="ocfpeheD2iWH20HzGndA-6">
          <mxGeometry relative="1" as="geometry" />
        </mxCell>
        <mxCell id="ocfpeheD2iWH20HzGndA-8" value="反馈&amp;amp;情绪类&lt;br&gt;（问题：情绪相关，你家产品xxx有问题&lt;br&gt;目的：进行翻译+情绪识别，减少万齐那边处理时间）" style="rounded=0;whiteSpace=wrap;html=1;" vertex="1" parent="1">
          <mxGeometry x="485" y="260" width="160" height="90" as="geometry" />
        </mxCell>
        <mxCell id="ocfpeheD2iWH20HzGndA-21" style="edgeStyle=orthogonalEdgeStyle;rounded=0;orthogonalLoop=1;jettySize=auto;html=1;entryX=0.5;entryY=0;entryDx=0;entryDy=0;" edge="1" parent="1" source="ocfpeheD2iWH20HzGndA-11" target="ocfpeheD2iWH20HzGndA-20">
          <mxGeometry relative="1" as="geometry" />
        </mxCell>
        <mxCell id="ocfpeheD2iWH20HzGndA-22" style="edgeStyle=orthogonalEdgeStyle;rounded=0;orthogonalLoop=1;jettySize=auto;html=1;" edge="1" parent="1" source="ocfpeheD2iWH20HzGndA-11" target="ocfpeheD2iWH20HzGndA-13">
          <mxGeometry relative="1" as="geometry" />
        </mxCell>
        <mxCell id="ocfpeheD2iWH20HzGndA-11" value="功能实现" style="rounded=0;whiteSpace=wrap;html=1;" vertex="1" parent="1">
          <mxGeometry x="780" y="20" width="120" height="60" as="geometry" />
        </mxCell>
        <mxCell id="ocfpeheD2iWH20HzGndA-17" style="edgeStyle=orthogonalEdgeStyle;rounded=0;orthogonalLoop=1;jettySize=auto;html=1;entryX=0.5;entryY=0;entryDx=0;entryDy=0;" edge="1" parent="1" source="ocfpeheD2iWH20HzGndA-12" target="ocfpeheD2iWH20HzGndA-16">
          <mxGeometry relative="1" as="geometry" />
        </mxCell>
        <mxCell id="ocfpeheD2iWH20HzGndA-12" value="情绪判断，翻译，邮件格式，关键词提取&lt;br&gt;(All in one)" style="rounded=0;whiteSpace=wrap;html=1;" vertex="1" parent="1">
          <mxGeometry x="680" y="260" width="120" height="60" as="geometry" />
        </mxCell>
        <mxCell id="ocfpeheD2iWH20HzGndA-15" style="edgeStyle=orthogonalEdgeStyle;rounded=0;orthogonalLoop=1;jettySize=auto;html=1;entryX=0.5;entryY=0;entryDx=0;entryDy=0;" edge="1" parent="1" source="ocfpeheD2iWH20HzGndA-13" target="ocfpeheD2iWH20HzGndA-12">
          <mxGeometry relative="1" as="geometry" />
        </mxCell>
        <mxCell id="ocfpeheD2iWH20HzGndA-13" value="工具类" style="rounded=0;whiteSpace=wrap;html=1;" vertex="1" parent="1">
          <mxGeometry x="680" y="160" width="120" height="60" as="geometry" />
        </mxCell>
        <mxCell id="ocfpeheD2iWH20HzGndA-16" value="Prompt工程&lt;br&gt;（在本机AI软件实现）" style="rounded=0;whiteSpace=wrap;html=1;" vertex="1" parent="1">
          <mxGeometry x="680" y="360" width="120" height="60" as="geometry" />
        </mxCell>
        <mxCell id="ocfpeheD2iWH20HzGndA-24" style="edgeStyle=orthogonalEdgeStyle;rounded=0;orthogonalLoop=1;jettySize=auto;html=1;" edge="1" parent="1" source="ocfpeheD2iWH20HzGndA-20" target="ocfpeheD2iWH20HzGndA-23">
          <mxGeometry relative="1" as="geometry" />
        </mxCell>
        <mxCell id="ocfpeheD2iWH20HzGndA-20" value="智能回复类" style="rounded=0;whiteSpace=wrap;html=1;" vertex="1" parent="1">
          <mxGeometry x="870" y="160" width="120" height="60" as="geometry" />
        </mxCell>
        <mxCell id="ocfpeheD2iWH20HzGndA-23" value="Dify+知识库+QA表" style="rounded=0;whiteSpace=wrap;html=1;" vertex="1" parent="1">
          <mxGeometry x="870" y="260" width="120" height="60" as="geometry" />
        </mxCell>
        <mxCell id="ocfpeheD2iWH20HzGndA-30" value="难点：业务对接，已经构成的体系无法再推倒重建。只能在此基础上赋能改进" style="rounded=0;whiteSpace=wrap;html=1;" vertex="1" parent="1">
          <mxGeometry x="1040" y="50" width="190" height="290" as="geometry" />
        </mxCell>
      </root>
    </mxGraphModel>
  </diagram>
</mxfile>
